<svg width="43" height="43" viewBox="0 0 43 43" fill="none" xmlns="http://www.w3.org/2000/svg">
<rect x="0.242188" y="0.0507812" width="42.4719" height="42.9032" rx="21.236" fill="#FAF5FC"/>
<path d="M18.0814 21.0734C18.0814 18.9409 19.7923 17.2118 21.9034 17.2118C24.0145 17.2118 25.7263 18.9409 25.7263 21.0734C25.7263 23.2058 24.0145 24.935 21.9034 24.935C19.7923 24.935 18.0814 23.2058 18.0814 21.0734ZM16.0148 21.0734C16.0148 24.3586 18.6511 27.0216 21.9034 27.0216C25.1557 27.0216 27.792 24.3586 27.792 21.0734C27.792 17.7882 25.1557 15.1252 21.9034 15.1252C18.6511 15.1252 16.0148 17.7882 16.0148 21.0734ZM26.649 14.8893C26.6489 15.1643 26.7295 15.4331 26.8806 15.6617C27.0317 15.8904 27.2466 16.0686 27.498 16.1739C27.7494 16.2793 28.0261 16.3069 28.2931 16.2534C28.5601 16.1998 28.8053 16.0675 28.9978 15.8732C29.1904 15.6789 29.3215 15.4313 29.3748 15.1616C29.428 14.892 29.4008 14.6125 29.2968 14.3585C29.1927 14.1044 29.0164 13.8872 28.7902 13.7344C28.5639 13.5816 28.2979 13.4999 28.0257 13.4998C27.6609 13.5 27.3105 13.6464 27.0525 13.907C26.7944 14.1675 26.6493 14.5208 26.649 14.8893ZM17.2704 30.5024C16.1523 30.4509 15.5446 30.2628 15.1408 30.1039C14.6054 29.8933 14.2233 29.6426 13.8217 29.2374C13.42 28.8323 13.1714 28.4467 12.9639 27.9059C12.8065 27.4982 12.6202 26.8841 12.5694 25.7547C12.5138 24.5337 12.5027 24.1669 12.5027 21.0735C12.5027 17.98 12.5147 17.6142 12.5694 16.3922C12.6203 15.2628 12.8079 14.65 12.9639 14.241C13.1723 13.7002 13.4206 13.3143 13.8217 12.9086C14.2228 12.5029 14.6044 12.2517 15.1408 12.0421C15.5444 11.8831 16.1523 11.695 17.2704 11.6436C18.4792 11.5875 18.8423 11.5763 21.9034 11.5763C24.9645 11.5763 25.328 11.5884 26.5378 11.6436C27.6559 11.6951 28.2626 11.8846 28.6674 12.0421C29.2029 12.2517 29.5849 12.5034 29.9865 12.9086C30.3882 13.3138 30.6359 13.7002 30.8443 14.241C31.0018 14.6488 31.188 15.2628 31.2388 16.3922C31.2944 17.6142 31.3055 17.98 31.3055 21.0735C31.3055 24.1669 31.2944 24.5327 31.2388 25.7547C31.1879 26.8841 31.0007 27.498 30.8443 27.9059C30.6359 28.4467 30.3876 28.8326 29.9865 29.2374C29.5854 29.6422 29.2029 29.8933 28.6674 30.1039C28.2638 30.2629 27.6559 30.451 26.5378 30.5024C25.329 30.5585 24.9659 30.5697 21.9034 30.5697C18.8409 30.5697 18.4788 30.5585 17.2704 30.5024ZM17.1754 9.55965C15.9546 9.61581 15.1204 9.81135 14.3919 10.0977C13.6374 10.3934 12.9987 10.7901 12.3604 11.4338C11.7222 12.0775 11.3304 12.7237 11.0377 13.4858C10.7542 14.2222 10.5606 15.0644 10.505 16.2976C10.4485 17.5327 10.4355 17.9276 10.4355 21.0734C10.4355 24.2192 10.4485 24.6141 10.505 25.8492C10.5606 27.0824 10.7542 27.9245 11.0377 28.6609C11.3304 29.4226 11.7222 30.0695 12.3604 30.7129C12.9986 31.3563 13.6374 31.7525 14.3919 32.049C15.1218 32.3354 15.9546 32.5309 17.1754 32.5871C18.3988 32.6433 18.7891 32.6572 21.9034 32.6572C25.0177 32.6572 25.4086 32.6442 26.6314 32.5871C27.8523 32.5309 28.686 32.3354 29.415 32.049C30.169 31.7525 30.8082 31.3566 31.4464 30.7129C32.0847 30.0692 32.4756 29.4226 32.7692 28.6609C33.0527 27.9245 33.2472 27.0823 33.3018 25.8492C33.3574 24.6131 33.3704 24.2192 33.3704 21.0734C33.3704 17.9276 33.3574 17.5327 33.3018 16.2976C33.2462 15.0643 33.0527 14.2217 32.7692 13.4858C32.4756 12.7242 32.0837 12.0785 31.4464 11.4338C30.8092 10.7891 30.169 10.3934 29.4159 10.0977C28.686 9.81135 27.8522 9.61489 26.6323 9.55965C25.4096 9.5035 25.0186 9.4895 21.9043 9.4895C18.79 9.4895 18.3988 9.50257 17.1754 9.55965Z" fill="#5B5B5B"/>
</svg>
