<svg width="44" height="44" viewBox="0 0 44 44" fill="none" xmlns="http://www.w3.org/2000/svg">
<rect x="0.691406" y="0.334961" width="42.4719" height="42.9032" rx="21.236" fill="#EEFAFF"/>
<path d="M17.485 29.7934V19.2395H14.0123V29.7934H17.4854H17.485ZM15.7494 17.7987C16.9601 17.7987 17.7139 16.9883 17.7139 15.9755C17.6912 14.9397 16.9601 14.1519 15.7724 14.1519C14.5839 14.1519 13.8076 14.9397 13.8076 15.9754C13.8076 16.9882 14.5611 17.7986 15.7266 17.7986H15.7491L15.7494 17.7987ZM19.4072 29.7934H22.8796V23.9002C22.8796 23.5852 22.9023 23.2694 22.994 23.0444C23.245 22.4139 23.8163 21.7613 24.7759 21.7613C26.0321 21.7613 26.535 22.729 26.535 24.1479V29.7934H30.0073V23.7421C30.0073 20.5005 28.2944 18.992 26.0097 18.992C24.1365 18.992 23.3139 20.0496 22.8568 20.7699H22.8799V19.2398H19.4074C19.4527 20.2299 19.4071 29.7938 19.4071 29.7938L19.4072 29.7934Z" fill="#F5F5F5"/>
<path d="M17.9459 28.6507V17.6506H14.4862V28.6507H17.9463H17.9459ZM16.2168 16.149C17.423 16.149 18.174 15.3043 18.174 14.2487C18.1514 13.169 17.423 12.3479 16.2397 12.3479C15.0556 12.3479 14.2822 13.169 14.2822 14.2486C14.2822 15.3042 15.0329 16.1489 16.1941 16.1489H16.2165L16.2168 16.149ZM19.8609 28.6507H23.3204V22.5084C23.3204 22.1801 23.343 21.8509 23.4344 21.6164C23.6844 20.9593 24.2536 20.279 25.2096 20.279C26.4612 20.279 26.9622 21.2877 26.9622 22.7666V28.6507H30.4216V22.3436C30.4216 18.965 28.715 17.3927 26.4388 17.3927C24.5726 17.3927 23.753 18.495 23.2977 19.2458H23.3207V17.651H19.8611C19.9063 18.6829 19.8608 28.6511 19.8608 28.6511L19.8609 28.6507Z" fill="#5B5B5B"/>
</svg>
