<svg width="99" height="102" viewBox="0 0 99 102" fill="none" xmlns="http://www.w3.org/2000/svg">
<path d="M61.96 54.2375H80.0966C79.5243 58.1204 78.1635 61.839 76.1011 65.1558C74.0386 68.4726 71.3199 71.3147 68.1185 73.5005L62.6067 77.2652L65.9938 82.4731L71.5056 78.7084C76.1451 75.5583 79.9497 71.2901 82.5817 66.2824C85.2138 61.2748 86.5919 55.6826 86.5938 50.0021V29.1391C86.5938 27.4749 85.9449 25.879 84.79 24.7023C83.6351 23.5255 82.0686 22.8645 80.4353 22.8645H61.96C60.3267 22.8645 58.7603 23.5255 57.6054 24.7023C56.4504 25.879 55.8016 27.4749 55.8016 29.1391V47.9629C55.8016 49.627 56.4504 51.223 57.6054 52.3997C58.7603 53.5764 60.3267 54.2375 61.96 54.2375ZM18.8511 54.2375L36.9876 54.2375C36.4153 58.1204 35.0545 61.839 32.9921 65.1558C30.9296 68.4726 28.2109 71.3147 25.0095 73.5005L19.4977 77.2652L22.854 82.4731L28.3966 78.7084C33.0361 75.5583 36.8407 71.2901 39.4728 66.2824C42.1048 61.2748 43.4829 55.6826 43.4848 50.0021L43.4848 29.1391C43.4848 27.4749 42.8359 25.879 41.681 24.7023C40.5261 23.5255 38.9597 22.8645 37.3263 22.8645H18.8511C17.2177 22.8645 15.6513 23.5255 14.4964 24.7023C13.3415 25.879 12.6926 27.4749 12.6926 29.1391V47.9629C12.6926 49.627 13.3415 51.223 14.4964 52.3997C15.6513 53.5764 17.2177 54.2375 18.8511 54.2375Z" fill="#969696"/>
</svg>
