<svg width="316" height="325" viewBox="0 0 316 325" fill="none" xmlns="http://www.w3.org/2000/svg">
<path d="M221.644 133.838C229.815 133.834 237.814 136.324 244.679 141.009C251.545 145.694 256.985 152.375 260.346 160.249C263.707 168.123 264.846 176.856 263.627 185.398C262.407 193.94 258.881 201.928 253.472 208.403V259.997C253.474 261.437 253.127 262.854 252.464 264.112C251.8 265.37 250.842 266.426 249.681 267.18C248.521 267.934 247.197 268.361 245.835 268.419C244.474 268.477 243.122 268.165 241.908 267.512L240.953 266.895L221.644 252.628L202.335 266.895C201.22 267.718 199.924 268.225 198.571 268.368C197.218 268.511 195.852 268.285 194.605 267.711C193.358 267.138 192.271 266.236 191.447 265.091C190.624 263.947 190.092 262.598 189.901 261.175L189.827 259.997V208.381C184.425 201.906 180.905 193.921 179.689 185.383C178.473 176.846 179.613 168.119 182.972 160.249C186.331 152.38 191.766 145.702 198.626 141.017C205.485 136.333 213.478 133.84 221.644 133.838ZM237.558 220.314C232.502 222.476 227.098 223.584 221.644 223.578C216.19 223.584 210.787 222.476 205.73 220.314V243.857L217.093 235.479C218.256 234.617 219.616 234.1 221.032 233.982C222.448 233.863 223.868 234.148 225.145 234.806L226.206 235.479L237.558 243.857V220.314ZM234.906 55.3704C242.335 55.37 249.485 58.3661 254.896 63.7476C260.308 69.1291 263.574 76.4905 264.028 84.3304L264.081 86.2147L264.091 145.054C259.789 138.999 254.377 133.921 248.178 130.126L248.167 86.2147C248.169 82.7437 246.952 79.3956 244.753 76.8182C242.554 74.2408 239.529 72.6172 236.264 72.2618L234.906 72.1945H81.0727C77.7896 72.1929 74.6226 73.4789 72.1847 75.8036C69.7467 78.1282 68.2111 81.3263 67.8749 84.779L67.8112 86.2147V192.768C67.8112 200.025 73.0309 206.003 79.7147 206.709L81.0727 206.788L175.728 206.799L177.033 209.076L178.454 211.274L179.207 212.329L179.197 223.612H81.0727C73.6415 223.612 66.4903 220.615 61.0784 215.231C55.6665 209.847 52.4018 202.483 51.9505 194.641L51.8975 192.768V86.2147C51.8971 78.3602 54.7311 70.8014 59.8214 65.0802C64.9117 59.3589 71.8747 55.9063 79.2903 55.4264L81.0727 55.3704H234.906ZM221.644 150.662C214.608 150.662 207.861 153.617 202.886 158.877C197.911 164.137 195.116 171.27 195.116 178.708C195.116 186.147 197.911 193.28 202.886 198.54C207.861 203.799 214.608 206.754 221.644 206.754C228.68 206.754 235.427 203.799 240.402 198.54C245.377 193.28 248.172 186.147 248.172 178.708C248.172 171.27 245.377 164.137 240.402 158.877C235.427 153.617 228.68 150.662 221.644 150.662ZM150.032 161.879C152.048 161.879 153.989 162.689 155.462 164.144C156.935 165.599 157.831 167.591 157.968 169.717C158.106 171.844 157.474 173.946 156.202 175.599C154.93 177.253 153.112 178.334 151.114 178.624L150.032 178.703H102.291C100.275 178.702 98.3344 177.892 96.8613 176.437C95.3882 174.982 94.4925 172.99 94.3551 170.864C94.2177 168.738 94.8488 166.635 96.1211 164.982C97.3933 163.329 99.2117 162.248 101.209 161.957L102.291 161.879H150.032ZM213.687 100.19C215.703 100.191 217.644 101 219.117 102.455C220.59 103.91 221.486 105.902 221.623 108.029C221.761 110.155 221.129 112.257 219.857 113.911C218.585 115.564 216.767 116.645 214.769 116.936L213.687 117.014H102.291C100.275 117.013 98.3344 116.204 96.8613 114.749C95.3882 113.294 94.4925 111.302 94.3551 109.175C94.2177 107.049 94.8488 104.947 96.1211 103.293C97.3933 101.64 99.2117 100.559 101.209 100.268L102.291 100.19H213.687Z" fill="url(#paint0_linear_74_242)"/>
<g filter="url(#filter0_f_74_242)">
<path d="M221.644 133.838C229.815 133.834 237.814 136.324 244.679 141.009C251.545 145.694 256.985 152.375 260.346 160.249C263.707 168.123 264.846 176.856 263.627 185.398C262.407 193.94 258.881 201.928 253.472 208.403V259.997C253.474 261.437 253.127 262.854 252.464 264.112C251.8 265.37 250.842 266.426 249.681 267.18C248.521 267.934 247.197 268.361 245.835 268.419C244.474 268.477 243.122 268.165 241.908 267.512L240.953 266.895L221.644 252.628L202.335 266.895C201.22 267.718 199.924 268.225 198.571 268.368C197.218 268.511 195.852 268.285 194.605 267.711C193.358 267.138 192.271 266.236 191.447 265.091C190.624 263.947 190.092 262.598 189.901 261.175L189.827 259.997V208.381C184.425 201.906 180.905 193.921 179.689 185.383C178.473 176.846 179.613 168.119 182.972 160.249C186.331 152.38 191.766 145.702 198.626 141.017C205.485 136.333 213.478 133.84 221.644 133.838ZM237.558 220.314C232.502 222.476 227.098 223.584 221.644 223.578C216.19 223.584 210.787 222.476 205.73 220.314V243.857L217.093 235.479C218.256 234.617 219.616 234.1 221.032 233.982C222.448 233.863 223.868 234.148 225.145 234.806L226.206 235.479L237.558 243.857V220.314ZM234.906 55.3704C242.335 55.37 249.485 58.3661 254.896 63.7476C260.308 69.1291 263.574 76.4905 264.028 84.3304L264.081 86.2147L264.091 145.054C259.789 138.999 254.377 133.921 248.178 130.126L248.167 86.2147C248.169 82.7437 246.952 79.3956 244.753 76.8182C242.554 74.2408 239.529 72.6172 236.264 72.2618L234.906 72.1945H81.0727C77.7896 72.1929 74.6226 73.4789 72.1847 75.8036C69.7467 78.1282 68.2111 81.3263 67.8749 84.779L67.8112 86.2147V192.768C67.8112 200.025 73.0309 206.003 79.7147 206.709L81.0727 206.788L175.728 206.799L177.033 209.076L178.454 211.274L179.207 212.329L179.197 223.612H81.0727C73.6415 223.612 66.4903 220.615 61.0784 215.231C55.6665 209.847 52.4018 202.483 51.9505 194.641L51.8975 192.768V86.2147C51.8971 78.3602 54.7311 70.8014 59.8214 65.0802C64.9117 59.3589 71.8747 55.9063 79.2903 55.4264L81.0727 55.3704H234.906ZM221.644 150.662C214.608 150.662 207.861 153.617 202.886 158.877C197.911 164.137 195.116 171.27 195.116 178.708C195.116 186.147 197.911 193.28 202.886 198.54C207.861 203.799 214.608 206.754 221.644 206.754C228.68 206.754 235.427 203.799 240.402 198.54C245.377 193.28 248.172 186.147 248.172 178.708C248.172 171.27 245.377 164.137 240.402 158.877C235.427 153.617 228.68 150.662 221.644 150.662ZM150.032 161.879C152.048 161.879 153.989 162.689 155.462 164.144C156.935 165.599 157.831 167.591 157.968 169.717C158.106 171.844 157.474 173.946 156.202 175.599C154.93 177.253 153.112 178.334 151.114 178.624L150.032 178.703H102.291C100.275 178.702 98.3344 177.892 96.8613 176.437C95.3882 174.982 94.4925 172.99 94.3551 170.864C94.2177 168.738 94.8488 166.635 96.1211 164.982C97.3933 163.329 99.2117 162.248 101.209 161.957L102.291 161.879H150.032ZM213.687 100.19C215.703 100.191 217.644 101 219.117 102.455C220.59 103.91 221.486 105.902 221.623 108.029C221.761 110.155 221.129 112.257 219.857 113.911C218.585 115.564 216.767 116.645 214.769 116.936L213.687 117.014H102.291C100.275 117.013 98.3344 116.204 96.8613 114.749C95.3882 113.294 94.4925 111.302 94.3551 109.175C94.2177 107.049 94.8488 104.947 96.1211 103.293C97.3933 101.64 99.2117 100.559 101.209 100.268L102.291 100.19H213.687Z" fill="url(#paint1_linear_74_242)"/>
</g>
<defs>
<filter id="filter0_f_74_242" x="32.8975" y="36.3704" width="250.204" height="251.056" filterUnits="userSpaceOnUse" color-interpolation-filters="sRGB">
<feFlood flood-opacity="0" result="BackgroundImageFix"/>
<feBlend mode="normal" in="SourceGraphic" in2="BackgroundImageFix" result="shape"/>
<feGaussianBlur stdDeviation="9.5" result="effect1_foregroundBlur_74_242"/>
</filter>
<linearGradient id="paint0_linear_74_242" x1="152.717" y1="326.128" x2="231.631" y2="323.479" gradientUnits="userSpaceOnUse">
<stop stop-color="#FDA4FB"/>
<stop offset="1" stop-color="#B07AE6"/>
</linearGradient>
<linearGradient id="paint1_linear_74_242" x1="152.717" y1="326.128" x2="231.631" y2="323.479" gradientUnits="userSpaceOnUse">
<stop stop-color="#FDA4FB"/>
<stop offset="1" stop-color="#B07AE6"/>
</linearGradient>
</defs>
</svg>
