<svg width="51" height="51" viewBox="0 0 51 51" fill="none" xmlns="http://www.w3.org/2000/svg">
<g filter="url(#filter0_d_220_284)">
<rect x="4.24219" y="0.0507812" width="42.4719" height="42.9032" rx="21.236" fill="#FAF5FC"/>
<path d="M22.0814 21.0734C22.0814 18.9409 23.7923 17.2118 25.9034 17.2118C28.0145 17.2118 29.7264 18.9409 29.7264 21.0734C29.7264 23.2058 28.0145 24.935 25.9034 24.935C23.7923 24.935 22.0814 23.2058 22.0814 21.0734ZM20.0148 21.0734C20.0148 24.3586 22.6511 27.0216 25.9034 27.0216C29.1557 27.0216 31.792 24.3586 31.792 21.0734C31.792 17.7882 29.1557 15.1252 25.9034 15.1252C22.6511 15.1252 20.0148 17.7882 20.0148 21.0734ZM30.649 14.8893C30.6489 15.1643 30.7295 15.4331 30.8806 15.6617C31.0317 15.8904 31.2466 16.0686 31.498 16.1739C31.7494 16.2793 32.0261 16.3069 32.2931 16.2534C32.5601 16.1998 32.8053 16.0675 32.9978 15.8732C33.1904 15.6789 33.3215 15.4313 33.3748 15.1616C33.428 14.892 33.4008 14.6125 33.2968 14.3585C33.1927 14.1044 33.0164 13.8872 32.7902 13.7344C32.5639 13.5816 32.2979 13.4999 32.0257 13.4998C31.6609 13.5 31.3105 13.6464 31.0525 13.907C30.7944 14.1675 30.6493 14.5208 30.649 14.8893ZM21.2704 30.5024C20.1523 30.4509 19.5446 30.2628 19.1408 30.1039C18.6054 29.8933 18.2233 29.6426 17.8217 29.2374C17.42 28.8323 17.1714 28.4467 16.9639 27.9059C16.8065 27.4982 16.6202 26.8841 16.5694 25.7547C16.5138 24.5337 16.5027 24.1669 16.5027 21.0735C16.5027 17.98 16.5147 17.6142 16.5694 16.3922C16.6203 15.2628 16.8079 14.65 16.9639 14.241C17.1723 13.7002 17.4206 13.3143 17.8217 12.9086C18.2228 12.5029 18.6044 12.2517 19.1408 12.0421C19.5444 11.8831 20.1523 11.695 21.2704 11.6436C22.4792 11.5875 22.8423 11.5763 25.9034 11.5763C28.9645 11.5763 29.328 11.5884 30.5378 11.6436C31.6559 11.6951 32.2626 11.8846 32.6674 12.0421C33.2029 12.2517 33.5849 12.5034 33.9865 12.9086C34.3882 13.3138 34.6359 13.7002 34.8443 14.241C35.0018 14.6488 35.188 15.2628 35.2388 16.3922C35.2944 17.6142 35.3055 17.98 35.3055 21.0735C35.3055 24.1669 35.2944 24.5327 35.2388 25.7547C35.1879 26.8841 35.0007 27.498 34.8443 27.9059C34.6359 28.4467 34.3876 28.8326 33.9865 29.2374C33.5854 29.6422 33.2029 29.8933 32.6674 30.1039C32.2638 30.2629 31.6559 30.451 30.5378 30.5024C29.329 30.5585 28.9659 30.5697 25.9034 30.5697C22.8409 30.5697 22.4788 30.5585 21.2704 30.5024ZM21.1754 9.55965C19.9546 9.61581 19.1204 9.81135 18.3919 10.0977C17.6374 10.3934 16.9987 10.7901 16.3604 11.4338C15.7222 12.0775 15.3304 12.7237 15.0377 13.4858C14.7542 14.2222 14.5606 15.0644 14.505 16.2976C14.4485 17.5327 14.4355 17.9276 14.4355 21.0734C14.4355 24.2192 14.4485 24.6141 14.505 25.8492C14.5606 27.0824 14.7542 27.9245 15.0377 28.6609C15.3304 29.4226 15.7222 30.0695 16.3604 30.7129C16.9986 31.3563 17.6374 31.7525 18.3919 32.049C19.1218 32.3354 19.9546 32.5309 21.1754 32.5871C22.3988 32.6433 22.7891 32.6572 25.9034 32.6572C29.0177 32.6572 29.4086 32.6442 30.6314 32.5871C31.8523 32.5309 32.686 32.3354 33.415 32.049C34.169 31.7525 34.8082 31.3566 35.4464 30.7129C36.0847 30.0692 36.4756 29.4226 36.7692 28.6609C37.0527 27.9245 37.2472 27.0823 37.3018 25.8492C37.3574 24.6131 37.3704 24.2192 37.3704 21.0734C37.3704 17.9276 37.3574 17.5327 37.3018 16.2976C37.2462 15.0643 37.0527 14.2217 36.7692 13.4858C36.4756 12.7242 36.0837 12.0785 35.4464 11.4338C34.8092 10.7891 34.169 10.3934 33.4159 10.0977C32.686 9.81135 31.8522 9.61489 30.6323 9.55965C29.4096 9.5035 29.0186 9.4895 25.9043 9.4895C22.79 9.4895 22.3988 9.50257 21.1754 9.55965Z" fill="#5B5B5B"/>
</g>
<defs>
<filter id="filter0_d_220_284" x="0.242188" y="0.0507812" width="50.4717" height="50.9033" filterUnits="userSpaceOnUse" color-interpolation-filters="sRGB">
<feFlood flood-opacity="0" result="BackgroundImageFix"/>
<feColorMatrix in="SourceAlpha" type="matrix" values="0 0 0 0 0 0 0 0 0 0 0 0 0 0 0 0 0 0 127 0" result="hardAlpha"/>
<feOffset dy="4"/>
<feGaussianBlur stdDeviation="2"/>
<feComposite in2="hardAlpha" operator="out"/>
<feColorMatrix type="matrix" values="0 0 0 0 0 0 0 0 0 0 0 0 0 0 0 0 0 0 0.25 0"/>
<feBlend mode="normal" in2="BackgroundImageFix" result="effect1_dropShadow_220_284"/>
<feBlend mode="normal" in="SourceGraphic" in2="effect1_dropShadow_220_284" result="shape"/>
</filter>
</defs>
</svg>
