<svg width="350" height="313" viewBox="0 0 350 313" fill="none" xmlns="http://www.w3.org/2000/svg">

<g filter="url(#filter0_f_111_151)">
<path d="M169.463 177.305C166.467 179.402 163.248 181.244 159.842 182.72L157.734 183.634V185.932V260.881L134.7 281.321L113.679 262.666L136.816 245.111L140.48 242.331L136.824 239.541L120.57 227.136L136.824 214.732L140.48 211.941L136.816 209.161L111.667 190.08V185.932V183.623L109.544 182.714C100.125 178.683 92.2461 172.394 86.7747 164.625C81.3073 156.862 78.4571 147.93 78.5005 138.858L78.5005 138.849V138.841C78.5005 113.046 100.724 91.5562 130.123 89.5212C127.549 95.453 125.956 101.58 125.212 107.779C120.982 109.479 117.343 112.302 114.839 115.963C111.887 120.277 110.73 125.445 111.65 130.519C112.569 135.584 115.472 140.097 119.71 143.303C123.769 146.374 128.826 148.082 134.037 148.218C142.057 161.17 154.571 171.289 169.463 177.305ZM256.227 249.174L229.022 237.857L243.795 214.404L246.163 210.643L241.953 209.222L221.77 202.408L232.245 185.925L234.647 182.147L230.401 180.729L199.184 170.299L197.659 166.407L196.873 164.403L194.73 164.2C184.272 163.21 174.37 159.645 166.139 153.946C157.913 148.251 151.704 140.669 148.153 132.095C143.163 119.853 143.834 106.371 150.046 94.5474C156.264 82.7103 167.581 73.4201 181.64 68.8401C183.447 68.3081 185.326 67.9231 187.241 67.5307C187.653 67.4462 188.067 67.3614 188.482 67.2747L193.241 66.2811L190.789 62.0833C186.033 53.9416 178.884 47.1707 170.168 42.4641C161.455 37.7584 151.483 35.2802 141.336 35.2727H141.334C110.486 35.2727 84.7672 57.5316 84.7672 85.8636C84.7672 85.9039 84.7671 85.9451 84.7671 85.987C84.7666 86.3968 84.7661 86.885 84.8069 87.431C82.7912 88.9645 80.849 90.5705 79.0132 92.2723C78.6849 90.1629 78.5005 88.0333 78.5005 85.8636C78.5005 55.6852 106.246 30.5 141.334 30.5C176.421 30.5 204.167 55.6852 204.167 85.8636C204.167 98.5688 199.24 110.132 190.97 119.583L185.343 126.015L193.865 125.378C209.862 124.184 217.607 113.854 221.192 104.312C222.968 99.5824 223.771 94.9692 224.136 91.5673C224.319 89.858 224.394 88.4331 224.422 87.4239C224.437 86.9189 224.439 86.5165 224.438 86.2331C224.438 86.0913 224.437 85.9792 224.435 85.8987C224.435 85.8676 224.434 85.8412 224.433 85.8197C224.43 80.3223 223.736 74.8916 222.451 69.696C236.627 74.8466 248.291 84.9758 253.915 98.4972C261.26 116.545 255.942 135.869 241.761 149.115L239.985 150.775L240.919 153.018L270.131 223.182L256.227 249.174ZM179.285 118.059L181.803 120.964L184.459 118.185C192.415 109.865 197.465 99.1819 197.898 87.2858L198.053 83.024L193.843 83.7033C192.308 83.9509 190.993 84.2083 189.52 84.6005L189.421 84.6269L189.324 84.659C177.539 88.547 170.276 100.559 175.392 111.957C176.39 114.433 177.845 116.398 179.285 118.059Z" stroke="url(#paint0_linear_111_151)" stroke-width="7"/>
</g>
<path d="M171.534 177.041C168.072 179.624 164.289 181.883 160.24 183.638L158.734 184.291V185.932V261.331L134.7 282.658L112.104 262.606L136.211 244.315L138.829 242.329L136.217 240.336L118.921 227.136L136.217 213.937L138.829 211.944L136.211 209.958L110.667 190.577V185.932V184.282L109.151 183.633C99.573 179.535 91.5423 173.131 85.9571 165.201C80.3748 157.275 77.456 148.141 77.5005 138.853V138.841C77.5005 111.931 101.078 89.7892 131.71 88.4298C128.693 94.9179 126.895 101.661 126.137 108.493C121.84 110.096 118.156 112.885 115.664 116.528C112.856 120.632 111.762 125.534 112.634 130.34C113.505 135.14 116.26 139.439 120.313 142.506C124.336 145.55 129.399 147.203 134.602 147.227C142.784 160.694 155.894 171.125 171.534 177.041ZM256.68 250.446L227.545 238.326L242.949 213.871L244.641 211.185L241.633 210.17L220.242 202.948L231.401 185.389L233.117 182.69L230.084 181.677L198.424 171.099L196.728 166.772L196.167 165.34L194.636 165.195C184.015 164.19 173.948 160.568 165.57 154.768C157.195 148.97 150.857 141.238 147.228 132.474C142.124 119.957 142.812 106.165 149.16 94.0823C155.513 81.9896 167.055 72.5363 181.344 67.8848C183.2 67.3376 185.133 66.9417 187.054 66.5481C187.463 66.4644 187.871 66.3808 188.278 66.2959L191.677 65.5861L189.926 62.5877C185.268 54.6147 178.258 47.9692 169.693 43.344C161.13 38.7194 151.322 36.2801 141.336 36.2727H141.334C110.923 36.2727 85.7672 58.1928 85.7672 85.8636C85.7672 85.8973 85.7671 85.9313 85.7671 85.9657C85.7668 86.5207 85.7663 87.1712 85.8575 87.8903C83.1982 89.8889 80.6722 92.0031 78.351 94.2868C77.8151 91.5285 77.5005 88.734 77.5005 85.8636C77.5005 55.024 105.809 29.5 141.334 29.5C176.858 29.5 205.167 55.024 205.167 85.8636C205.167 98.8406 200.131 110.632 191.723 120.242L187.703 124.836L193.79 124.381C209.273 123.226 216.757 113.274 220.256 103.96C221.994 99.3333 222.783 94.8084 223.141 91.4608C223.321 89.7811 223.395 88.3824 223.423 87.3956C223.437 86.9018 223.439 86.51 223.438 86.2365C223.438 86.0997 223.437 85.9924 223.435 85.9165C223.435 85.8961 223.435 85.878 223.434 85.8622C223.434 85.8501 223.434 85.8394 223.433 85.8301C223.43 79.7747 222.577 73.7997 221.008 68.1384C236.211 73.1511 248.859 83.7325 254.84 98.1176C262.36 116.592 256.894 136.348 242.444 149.846L241.175 151.031L241.842 152.634L271.236 223.235L256.68 250.446ZM180.041 117.404L181.839 119.479L183.737 117.494C191.542 109.331 196.476 98.8748 196.899 87.2495L197.009 84.2054L194.002 84.6906C192.489 84.9347 191.208 85.1858 189.777 85.5669L189.706 85.5857L189.637 85.6086C178.263 89.3611 171.483 100.833 176.312 111.566C177.253 113.906 178.633 115.781 180.041 117.404Z" stroke="url(#paint1_linear_111_151)" stroke-width="5"/>
<defs>
<filter id="filter0_f_111_151" x="58" y="10" width="233" height="293" filterUnits="userSpaceOnUse" color-interpolation-filters="sRGB">
<feFlood flood-opacity="0" result="BackgroundImageFix"/>
<feBlend mode="normal" in="SourceGraphic" in2="BackgroundImageFix" result="shape"/>
<feGaussianBlur stdDeviation="8.5" result="effect1_foregroundBlur_111_151"/>
</filter>
<linearGradient id="paint0_linear_111_151" x1="169.546" y1="356.146" x2="243.584" y2="354.228" gradientUnits="userSpaceOnUse">
<stop stop-color="#FDA4FB"/>
<stop offset="1" stop-color="#B07AE6"/>
</linearGradient>
<linearGradient id="paint1_linear_111_151" x1="111.76" y1="264.231" x2="167.381" y2="291.63" gradientUnits="userSpaceOnUse">
<stop stop-color="#FDA4FB"/>
<stop offset="1" stop-color="#B07AE6"/>
</linearGradient>
</defs>
</svg>
