<svg width="274" height="270" viewBox="0 0 274 270" fill="none" xmlns="http://www.w3.org/2000/svg">
<g clip-path="url(#clip0_74_233)">
<path d="M133.76 34.0956C147.845 34.0956 159.447 45.5284 159.447 59.4081C159.447 68.9003 150.285 80.4006 142.322 84.7206L168.935 141.019L210.565 103.443C207.937 101.063 205.84 98.1682 204.41 94.9445C202.98 91.7208 202.248 88.2388 202.26 84.7206C202.26 70.8409 213.862 59.4081 227.947 59.4081C242.033 59.4081 253.635 70.8409 253.635 84.7206C253.635 96.0943 245.706 105.553 235.174 108.717L219.385 194.408V236.596L48.1348 236.596V194.408L32.3455 108.717C21.8136 105.553 13.8848 96.0943 13.8848 84.7206C13.8848 70.8409 25.487 59.4081 39.5723 59.4081C53.6576 59.4081 65.2598 70.8409 65.2598 84.7206C65.2598 92.0696 62.5461 104.068 57.3915 108.717L98.5841 141.019L122.652 84.7206C118.615 82.5457 114.047 76.1796 111.693 72.284C109.339 68.3884 108.089 63.9419 108.072 59.4081C108.072 45.5284 119.674 34.0956 133.76 34.0956ZM133.76 50.9706C128.939 50.9706 125.197 54.6662 125.197 59.4081C125.197 64.1584 128.948 67.8456 133.76 67.8456C138.58 67.8456 142.322 64.15 142.322 59.4081C142.322 54.6578 138.572 50.9706 133.76 50.9706ZM227.947 76.2831C223.127 76.2831 219.385 79.9787 219.385 84.7206C219.385 89.4709 223.135 93.1581 227.947 93.1581C232.768 93.1581 236.51 89.4625 236.51 84.7206C236.51 79.9703 232.759 76.2831 227.947 76.2831ZM39.5723 76.2831C34.7516 76.2831 31.0098 79.9787 31.0098 84.7206C31.0098 89.4709 34.7601 93.1581 39.5723 93.1581C44.3929 93.1581 48.1348 89.4625 48.1348 84.7206C48.1348 79.9703 44.3844 76.2831 39.5723 76.2831ZM133.76 95.2675L107.267 147.479L94.4236 150.643L51.6111 120.58L57.3915 196.049L208.739 196.049L215.9 120.58L173.087 150.643L160.244 147.479L133.76 95.2675ZM208.739 202.846L57.3915 202.846V228.532L208.739 228.532V202.846Z" fill="url(#paint0_linear_74_233)"/>
<g filter="url(#filter0_f_74_233)">
<path d="M133.76 34.0956C147.845 34.0956 159.447 45.5284 159.447 59.4081C159.447 68.9003 150.285 80.4006 142.322 84.7206L168.935 141.019L210.565 103.443C207.937 101.063 205.84 98.1682 204.41 94.9445C202.98 91.7208 202.248 88.2388 202.26 84.7206C202.26 70.8409 213.862 59.4081 227.947 59.4081C242.033 59.4081 253.635 70.8409 253.635 84.7206C253.635 96.0943 245.706 105.553 235.174 108.717L219.385 194.408V236.596L48.1348 236.596V194.408L32.3455 108.717C21.8136 105.553 13.8848 96.0943 13.8848 84.7206C13.8848 70.8409 25.487 59.4081 39.5723 59.4081C53.6576 59.4081 65.2598 70.8409 65.2598 84.7206C65.2598 92.0696 62.5461 104.068 57.3915 108.717L98.5841 141.019L122.652 84.7206C118.615 82.5457 114.047 76.1796 111.693 72.284C109.339 68.3884 108.089 63.9419 108.072 59.4081C108.072 45.5284 119.674 34.0956 133.76 34.0956ZM133.76 50.9706C128.939 50.9706 125.197 54.6662 125.197 59.4081C125.197 64.1584 128.948 67.8456 133.76 67.8456C138.58 67.8456 142.322 64.15 142.322 59.4081C142.322 54.6578 138.572 50.9706 133.76 50.9706ZM227.947 76.2831C223.127 76.2831 219.385 79.9787 219.385 84.7206C219.385 89.4709 223.135 93.1581 227.947 93.1581C232.768 93.1581 236.51 89.4625 236.51 84.7206C236.51 79.9703 232.759 76.2831 227.947 76.2831ZM39.5723 76.2831C34.7516 76.2831 31.0098 79.9787 31.0098 84.7206C31.0098 89.4709 34.7601 93.1581 39.5723 93.1581C44.3929 93.1581 48.1348 89.4625 48.1348 84.7206C48.1348 79.9703 44.3844 76.2831 39.5723 76.2831ZM133.76 95.2675L107.267 147.479L94.4236 150.643L51.6111 120.58L57.3915 196.049L208.739 196.049L215.9 120.58L173.087 150.643L160.244 147.479L133.76 95.2675ZM208.739 202.846L57.3915 202.846V228.532L208.739 228.532V202.846Z" fill="url(#paint1_linear_74_233)"/>
</g>
</g>
<defs>
<filter id="filter0_f_74_233" x="-2.11523" y="18.0956" width="271.75" height="234.5" filterUnits="userSpaceOnUse" color-interpolation-filters="sRGB">
<feFlood flood-opacity="0" result="BackgroundImageFix"/>
<feBlend mode="normal" in="SourceGraphic" in2="BackgroundImageFix" result="shape"/>
<feGaussianBlur stdDeviation="8" result="effect1_foregroundBlur_74_233"/>
</filter>
<linearGradient id="paint0_linear_74_233" x1="139.729" y1="291.439" x2="50.6116" y2="287.883" gradientUnits="userSpaceOnUse">
<stop stop-color="#FDA4FB"/>
<stop offset="1" stop-color="#B07AE6"/>
</linearGradient>
<linearGradient id="paint1_linear_74_233" x1="139.729" y1="291.439" x2="50.6116" y2="287.883" gradientUnits="userSpaceOnUse">
<stop stop-color="#FDA4FB"/>
<stop offset="1" stop-color="#B07AE6"/>
</linearGradient>
<clipPath id="clip0_74_233">
<rect width="274" height="270" fill="white" transform="matrix(-1 0 0 1 274 0)"/>
</clipPath>
</defs>
</svg>
