<svg width="52" height="52" viewBox="0 0 52 52" fill="none" xmlns="http://www.w3.org/2000/svg">
<g filter="url(#filter0_d_220_269)">
<rect x="4.69141" y="0.334961" width="42.4719" height="42.9032" rx="21.236" fill="#EEFAFF"/>
<path d="M21.485 29.7934V19.2395H18.0123V29.7934H21.4854H21.485ZM19.7494 17.7987C20.9601 17.7987 21.7139 16.9883 21.7139 15.9755C21.6912 14.9397 20.9601 14.1519 19.7724 14.1519C18.5839 14.1519 17.8076 14.9397 17.8076 15.9754C17.8076 16.9882 18.5611 17.7986 19.7266 17.7986H19.7491L19.7494 17.7987ZM23.4072 29.7934H26.8796V23.9002C26.8796 23.5852 26.9023 23.2694 26.994 23.0444C27.245 22.4139 27.8163 21.7613 28.7759 21.7613C30.0321 21.7613 30.535 22.729 30.535 24.1479V29.7934H34.0073V23.7421C34.0073 20.5005 32.2944 18.992 30.0097 18.992C28.1365 18.992 27.3139 20.0496 26.8568 20.7699H26.8799V19.2398H23.4074C23.4527 20.2299 23.4071 29.7938 23.4071 29.7938L23.4072 29.7934Z" fill="#F5F5F5"/>
<path d="M21.9459 28.6507V17.6506H18.4862V28.6507H21.9463H21.9459ZM20.2168 16.149C21.423 16.149 22.174 15.3043 22.174 14.2487C22.1514 13.169 21.423 12.3479 20.2397 12.3479C19.0556 12.3479 18.2822 13.169 18.2822 14.2486C18.2822 15.3042 19.0329 16.1489 20.1941 16.1489H20.2165L20.2168 16.149ZM23.8609 28.6507H27.3204V22.5084C27.3204 22.1801 27.343 21.8509 27.4344 21.6164C27.6844 20.9593 28.2536 20.279 29.2096 20.279C30.4612 20.279 30.9622 21.2877 30.9622 22.7666V28.6507H34.4216V22.3436C34.4216 18.965 32.715 17.3927 30.4388 17.3927C28.5726 17.3927 27.753 18.495 27.2977 19.2458H27.3207V17.651H23.8611C23.9063 18.6829 23.8608 28.6511 23.8608 28.6511L23.8609 28.6507Z" fill="#5B5B5B"/>
</g>
<defs>
<filter id="filter0_d_220_269" x="0.691406" y="0.334961" width="50.4717" height="50.9033" filterUnits="userSpaceOnUse" color-interpolation-filters="sRGB">
<feFlood flood-opacity="0" result="BackgroundImageFix"/>
<feColorMatrix in="SourceAlpha" type="matrix" values="0 0 0 0 0 0 0 0 0 0 0 0 0 0 0 0 0 0 127 0" result="hardAlpha"/>
<feOffset dy="4"/>
<feGaussianBlur stdDeviation="2"/>
<feComposite in2="hardAlpha" operator="out"/>
<feColorMatrix type="matrix" values="0 0 0 0 0 0 0 0 0 0 0 0 0 0 0 0 0 0 0.25 0"/>
<feBlend mode="normal" in2="BackgroundImageFix" result="effect1_dropShadow_220_269"/>
<feBlend mode="normal" in="SourceGraphic" in2="effect1_dropShadow_220_269" result="shape"/>
</filter>
</defs>
</svg>
